<svg baseProfile="tiny" xmlns="http://www.w3.org/2000/svg" viewBox="0 0 446.5 102.8"><path fill="#AC1739" d="M207 100.3s-1.8 2.5-5.9 2.5H14.9c-6.8 0-7.7-2.5-7.7-2.5S0 88.5 0 85.7v-2.5c0-3.6 4-6.9 4-6.9V18.9S0 16 0 13.7V8.3c0-2.8 2.3-5.1 5.1-5.1h201.8c2.8 0 5.1 2.3 5.1 5.1v5.8c0 3.4-4.4 2.8-4.4 2.8v61.4s4.4 1 4.4 3.3v4.2c-.1 2.7-5 14.5-5 14.5z"/><path fill="#3C3C3B" d="M205.5 84.3H6.4c-2.8 0-5.1-2.3-5.1-5.1V61.1l-1-1.4V55l1-1.4v-1.8l-1-1.1V19.9l1-1.4v-1.4c0-2.8 2.3-5.1 5.1-5.1h199.1c2.8 0 5.1 2.3 5.1 5.1v1.5l1.3 2.9v28.2l-1.3 1.9V53l1.3 1.5v5.2l-1.3 1.3v18.3c0 2.8-2.3 5-5.1 5z"/><path fill="#666" d="M1.3 61.1h23.5c1.7 0 3.1 1.4 3.1 3.1v12.2c0 1.7-1.4 3.1-3.1 3.1H1.3"/><path fill="#3C3C3B" d="M1.3 62.2h22.5c1.6 0 3 1.2 3 2.7v10.8c0 1.5-1.3 2.7-3 2.7H1.3"/><path fill="#666" d="M210.6 79.4h-57.1c-1.7 0-3.1-1.4-3.1-3.1V64.2c0-1.7 1.4-3.1 3.1-3.1h57.1"/><path fill="#3C3C3B" d="M210.6 78.3h-56.1c-1.6 0-3-1.2-3-2.7V64.8c0-1.5 1.3-2.7 3-2.7h56.1"/><path fill="#666" d="M161.7 53H38c-1.7 0-3-1.4-3-3V18.3c0-1.7 1.3-3 3-3h123.7c1.7 0 3 1.3 3 3V50c0 1.7-1.4 3-3 3z"/><path fill="#3C3C3B" d="M159.7 51.4H39.3c-1.5 0-2.8-1.3-2.8-2.8V20.2c0-1.5 1.3-2.8 2.8-2.8h120.5c1.5 0 2.8 1.3 2.8 2.8v28.3c-.1 1.6-1.3 2.9-2.9 2.9z"/><path fill="#6F6F6E" d="M40.1 23.2h119v17h-119z"/><path fill="#6F6F6E" d="M81.5 17.4h36.3v34H81.5z"/><path fill="#3C3C3B" d="M83.1 19.1h33.6v31H83.1z"/><path fill="#3C3C3B" d="M42.2 24.8h115v13.8h-115z"/><path fill="#666" d="M210.6 53.3l-35.3-.1c-2.7 0-3.9-1.4-3.9-3.2V19.9c0-1.8 1.1-3.2 3.7-3.2h35.5"/><path fill="#3C3C3B" d="M210.6 52.1L176 52c-2.6 0-3.5-1.3-3.5-2.9V20.8c0-1.7.4-2.9 3-2.9l35.1-.1"/><path fill="#E79F00" d="M359.8 2.3s-.1-2.3 2.8-2.3h6c1.8 0 1.8 1.2 1.8 1.2s0 1.2 2.4 1.2h19.8c1.9 0 1.9-1.2 1.9-1.2s-.1-1.2 2.1-1.2h12.9c2.2 0 2.2 1.2 2.2 1.2s0 1.2 2 1.2h20.1c1.9 0 2.2-1.2 2.2-1.2s0-1.2 2-1.2h6.9c1.6 0 1.6 2 1.6 2v97.3c0 3.2-3 3.2-3 3.2h-80.7c-3.1 0-3.1-3.1-3.1-3.1V2.3z"/><ellipse transform="rotate(-45.001 403.096 46.476)" fill="#1D1D1B" cx="403.1" cy="46.5" rx="9.7" ry="9.7"/><circle fill="#FFF" cx="403.1" cy="46.5" r="7.8"/><path fill="#1D1D1B" d="M406 34.4h-5.8c-.6 0-1.1-.5-1.1-1.1V4.5c0-.6.5-1.1 1.1-1.1h5.8c.6 0 1.1.5 1.1 1.1v28.8c0 .6-.5 1.1-1.1 1.1z"/><path fill="#6B5532" d="M403.1 62.2c-8.7 0-15.8-7.1-15.8-15.8V46 2.3h1.5v44.2c0 7.9 6.4 14.3 14.3 14.3s14.3-6.4 14.3-14.3V2.3h1.5v44.2c0 8.7-7.1 15.7-15.8 15.7z"/><path fill="#1D1D1B" d="M367.3 13.2H361v-8h6.3v8zm-5.8-.5h5.3V5.6h-5.3v7.1z"/><path fill="#6B5532" d="M369.8 90h-10v-.4h9.5v-5.5h-9.5v-.5h10zM446.5 90h-10v-6.4h10v.5H437v5.5h9.5zM366.9 22h-7.1v-.5h6.6v-4.7h-6.6v-.4h7.1zM446.5 22h-7.1v-5.6h7.1v.4h-6.6v4.7h6.6zM440.5 102.5c.9 0 1.7-1 1.7-1.9V93c0-.9-.8-1.7-1.7-1.7h-73.9c-.9 0-1.7.8-1.7 1.7v7.6c0 .9.8 1.9 1.7 1.9-1.2 0-2.2-.7-2.2-1.9V93c0-1.2 1-2.2 2.2-2.2h73.9c1.2 0 2.2 1 2.2 2.2v7.6c0 1.1-1 1.9-2.2 1.9z"/><path fill="#6B5532" d="M377.8 101c-.8 0-1.4-.6-1.4-1.4v-5.9c0-.8.6-1.4 1.4-1.4.8 0 1.4.6 1.4 1.4v5.9c0 .7-.7 1.4-1.4 1.4zM398.7 92.2h-6.9c-.5 0-1 .4-1 1v.9c0 .5.4 1 1 1h2v4.9c0 .5.4 1 1 1h.9c.5 0 1-.4 1-1v-5h2c.5 0 1-.4 1-1v-.9c0-.5-.5-.9-1-.9zM408.9 94.7c.5 0 1-.4 1-1v-.6c0-.5-.4-1-1-1H402.1c-.5 0-1 .4-1 1v6.8c0 .5.4 1 1 1h6.9c.5 0 1-.4 1-1v-.4c0-.5-.4-1-1-1h-5v-.8h3.6c.5 0 1-.4 1-1v-.4c0-.5-.4-1-1-1H404v-.6h4.9zM373.9 92.2h-.9c-.5 0-1 .4-1 1v3.1l-3.1-3.7c-.2-.2-.5-.3-.8-.3h-.9c-.5 0-1 .4-1 1v6.9c0 .5.4 1 1 1h.9c.5 0 1-.4 1-1v-2.8l2.9 3.4c.5.5.9.4 1 .4h.9c.5 0 1-.4 1-1v-6.9c0-.7-.4-1.1-1-1.1zM419.1 92.2h-.9c-.5 0-1 .4-1 1v3.1l-3.1-3.7c-.2-.2-.5-.3-.8-.3h-.9c-.5 0-1 .4-1 1v6.9c0 .5.4 1 1 1h.9c.5 0 1-.4 1-1v-2.8l2.9 3.4c.5.5.9.4 1 .4h.9c.5 0 1-.4 1-1v-6.9c-.1-.7-.5-1.1-1-1.1zM388.6 92.2h-.9c-.5 0-1 .4-1 1v3.1l-3.1-3.7c-.2-.2-.5-.3-.8-.3h-.9c-.5 0-1 .4-1 1v6.9c0 .5.4 1 1 1h.9c.5 0 1-.4 1-1v-2.8l2.9 3.4c.5.5.9.4 1 .4h.9c.5 0 1-.4 1-1v-6.9c0-.7-.5-1.1-1-1.1zM437.5 92.2h-2.8c-1.6 0-2.9 1.3-2.9 2.9v3c0 1.6 1.3 2.9 2.9 2.9h2.8c1.6 0 2.9-1.3 2.9-2.9v-3c0-1.6-1.3-2.9-2.9-2.9zm.4 5.3c0 .5-.4 1-1 1h-1.7c-.5 0-1-.4-1-1v-1.7c0-.5.4-1 1-1h1.7c.5 0 1 .4 1 1v1.7zM427.2 92.2h-2.8c-.2 0-.4 0-.6.1-.1 0-.2-.1-.4-.1h-.9c-.5 0-1 .4-1 1V100c0 .5.4 1 1 1h.9c.1 0 .3 0 .4-.1.2 0 .4.1.6.1h2.8c1.6 0 2.9-1.3 2.9-2.9v-3c0-1.6-1.3-2.9-2.9-2.9zm.5 5.2c0 .5-.4 1-1 1h-1.4c-.5 0-1-.4-1-1v-1.7c0-.5.4-1 1-1h1.4c.5 0 1 .4 1 1v1.7z"/><g><path fill="#1D1D1B" d="M444.6 14.9h-5.3V5.4h.6v8.9h4.1V5.4h.6z"/></g><g><path fill="#6B5532" d="M434.6 91h-.6V64c0-.6-.5-1.2-1.2-1.2h-59.4c-.6 0-1.2.5-1.2 1.2v27h-.6V64c0-1 .8-1.7 1.7-1.7h59.4c1 0 1.7.8 1.7 1.7v27z"/></g><path fill="#231715" d="M406.1 46.5c0 1.7-1.3 3-3 3s-3-1.3-3-3 1.3-3 3-3c1.6 0 3 1.3 3 3z"/><g><path fill="#1D1D1B" d="M426.9 89.6h-47.5c-3.6 0-6.6-3-6.6-6.6V70.4c0-3.6 3-6.6 6.6-6.6h47.5c3.6 0 6.6 3 6.6 6.6V83c0 3.7-2.9 6.6-6.6 6.6z"/><g fill="#E79F00"><path d="M381.8 67.6c.7-.2 1.1-.8 1.3-1.3 0-.1 0-.2-.1-.2h-1.3c-.2 0-.2-.3 0-.3h1.5c.3 0 .5.2.4.5-.2.7-.6 1.3-1.5 1.6-.4.1-.5-.2-.3-.3zM384.4 68c-.2.1-.4-.1-.2-.2.4-.2.5-.6.5-.9 0-.1.1-.2.2-.2s.2 0 .2.2c.2-.1.3-.2.4-.3h-1.1c-.2 0-.2-.3 0-.3h1.2c.3 0 .4.2.2.4s-.3.3-.6.4h-.1c-.2.4-.3.7-.7.9zM387.7 67.9c-.2-.1-.4-.2-.5-.3-.2-.1-.3-.1-.5-.2s-.1-.4.1-.3c.3.1.8.3 1.1.5.1.1.1.2 0 .3 0 .1-.1.1-.2 0zm-.3-1.1c-.2-.1-.4-.2-.5-.2-.3 0-.1-.3.1-.3s.5.1.6.2c.1.1.1.2.1.3-.1 0-.2.1-.3 0zm.2-.7c-.2-.1-.5-.2-.8-.2-.2 0-.1-.3.1-.3s.5.1.8.2c.1.1.2.2.1.3 0 0-.1.1-.2 0zM389 67c-.1 0-.2-.1-.2-.2v-1.1c0-.2.3-.2.3 0v1.2c.1 0 0 .1-.1.1zm.1.8c.6-.3.7-.8.7-1.2v-.9c0-.2.4-.2.3 0v.9c0 .6-.2 1.1-.8 1.5-.3.1-.4-.2-.2-.3zM391 66.8c-.1 0-.2-.1-.2-.2s.1-.2.2-.2h2c.1 0 .2.1.2.2s-.1.2-.2.2h-2zM395.2 67.6H394c-.2 0-.2-.3 0-.3h1.2c.1 0 .2-.1.2-.2v-.7c0-.1-.1-.2-.2-.2h-1.1c-.3 0-.3-.3 0-.3h1.3c.3 0 .4.2.4.4v.8c-.1.4-.3.5-.6.5zM397.1 66.5c-.1-.1-.3-.2-.5-.2s-.1-.4.1-.3c.2 0 .4.1.6.2.1.1.1.2 0 .3 0 0-.1.1-.2 0zm-.2 1.3c-.3.1-.4-.3-.1-.4.7-.2 1.3-.8 1.6-1.5.1-.2.4-.1.3.2-.4.8-1.1 1.5-1.8 1.7zM399.8 67.2c0 .2.1.2.3.3.2 0 .7 0 .9-.1.2-.1.4.3.1.4-.3.1-.8.1-1.1 0-.3 0-.5-.2-.5-.5v-1.4c0-.2.3-.2.3 0v.7c.3 0 .8-.2 1-.3.2-.1.4.2.1.3-.3.1-.8.3-1.2.3.1.1.1.2.1.3zm1.5-1c-.2 0-.3-.2-.3-.3s.2-.3.3-.3.3.2.3.3-.1.3-.3.3zm0-.5c-.1 0-.2.1-.2.2s.1.2.2.2.2-.1.2-.2-.1-.2-.2-.2zM403.5 67.4c.2 0 .2.3 0 .3h-1.6c-.2 0-.2-.3 0-.3h.9c0-.1.1-.3.1-.4 0 0 0-.1-.1-.1h-.6c-.2 0-.2-.3 0-.3h.7c.2 0 .3.2.2.3 0 .1-.1.3-.1.5h.5zM404.3 66.8c-.1 0-.2-.1-.2-.2s.1-.2.2-.2h2c.1 0 .2.1.2.2s-.1.2-.2.2h-2zM407.3 68c-.3.1-.4-.2-.1-.3.5-.2.8-.4 1.1-.7-.1-.1-.2-.1-.3-.2-.2 0-.1-.3.1-.3.1 0 .3.1.4.2.1-.2.2-.3.3-.5.1-.1 0-.2 0-.1h-.6c-.2.3-.5.6-.7.8-.2.2-.4-.1-.2-.3.3-.2.8-.7.9-1 .1-.3.5-.1.3.1 0 0 0 .1-.1.1h.5c.3 0 .4.2.3.5-.1.2-.2.4-.4.6.1.1.2.1.2.2.1.1.1.2 0 .2-.1.1-.2.1-.2 0s-.1-.1-.2-.2c-.4.4-.8.7-1.3.9zM410.2 67.9c-.3.1-.4-.2-.1-.3.5-.1.8-.5.8-1h-.9c-.1 0-.2-.1-.2-.1 0-.1.1-.2.2-.2h2c.1 0 .2.1.2.2s-.1.2-.2.1h-.7c-.1.6-.5 1.1-1.1 1.3zm.1-1.9c-.2 0-.2-.3 0-.3h1.1c.1 0 .2.1.2.2s-.1.2-.2.2c-.4-.1-.8-.1-1.1-.1zm1.6 0c0-.1-.2-.2-.2-.2-.1-.1 0-.3.2-.2.1 0 .2.2.3.3 0 .1-.2.3-.3.1zm.4-.2l-.2-.2c-.2-.1 0-.3.1-.2.1 0 .2.2.3.3.1.1-.1.3-.2.1zM412.5 67.5c-.1.1-.2 0-.3 0 0-.1 0-.2.1-.2.4-.2.9-.6 1.1-1.1.1-.2.4 0 .3.2-.1.1-.2.3-.3.4v1.1c0 .1-.1.2-.1.2-.1 0-.2-.1-.2-.2v-.8c-.2.1-.4.3-.6.4zM414.6 67.8c-.2.1-.3-.2-.1-.3.6-.2 1.1-.7 1.4-1.2 0-.1 0-.1-.1-.1h-.9c-.2 0-.2-.3 0-.3h1c.3 0 .5.2.3.4-.1.2-.2.4-.4.6.3.2.7.4.8.6.1.2-.1.4-.3.2-.2-.2-.5-.5-.8-.7-.1.4-.5.6-.9.8zM418.5 65.8h.4c.3 0 .5.2.3.4-.4.8-.8 1.4-1.8 1.8-.3.1-.4-.2-.1-.3.7-.3 1.3-.9 1.5-1.5 0-.1 0-.1-.1-.1h-.5c-.2.3-.5.6-.7.8-.2.1-.4-.1-.2-.3.3-.2.7-.8.9-1.1.2-.1.5.1.3.3zM420.4 66.9c-.1-.1-.3-.1-.4-.2-.2 0-.1-.3.1-.3s.3.1.5.2c.1.1.1.2.1.2-.1.1-.2.2-.3.1zm0 1c-.3.1-.4-.3-.1-.3.6-.2 1.4-.9 1.7-1.5.1-.2.4-.1.3.2-.4.7-1.1 1.4-1.9 1.6zm.4-1.6c-.1-.1-.2-.2-.4-.3-.2-.1-.1-.4.2-.3.1.1.3.2.4.3.1.1.1.2 0 .3 0 .1-.1.1-.2 0zM423 67.8c-.2.1-.3-.2-.1-.3.6-.2 1.1-.7 1.4-1.2 0-.1 0-.1-.1-.1h-.9c-.2 0-.2-.3 0-.3h1c.3 0 .5.2.3.4-.1.2-.2.4-.4.6.3.2.7.4.8.6.1.2-.1.4-.3.2-.2-.2-.5-.5-.8-.7-.1.4-.5.6-.9.8zM426.1 67.9c-.3.1-.4-.2-.1-.3.5-.1.8-.5.8-1h-.9c-.1 0-.2-.1-.2-.1 0-.1.1-.2.2-.2h2c.1 0 .2.1.2.2s-.1.2-.2.1h-.7c-.1.6-.4 1.1-1.1 1.3zm1.4-2h-1.3c-.2 0-.2-.3 0-.3h1.3c.1 0 .2.1.2.2s-.1.1-.2.1zM428.5 67.9c-.2 0-.3-.3-.1-.3h.2c.2-.3.5-1.2.6-1.7.1-.3.4-.2.4.1-.1.4-.4 1.1-.6 1.5.3-.1.7-.1 1-.2-.1-.1-.2-.2-.2-.3-.2-.1.1-.4.2-.2.2.1.5.5.6.8 0 .1 0 .2-.1.2s-.2 0-.2-.1-.1-.1-.1-.2c-.5.1-1.2.3-1.7.4z"/></g><path d="M378.9 65h1.3c.1 0 .2 0 .2.1.1 0 .1.1.1.1s.1.1.1.2V66.8c.1 0 .1.1.2.1.1.1.1.1.1.2v.4c0 .1 0 .1-.1.2 0 .1-.1.1-.1.1s-.1 0-.1.1v.2s.1 0 .1.1c.1 0 .1.1.1.2v.4s0 .1-.1.1c-.1.1-.1.1-.2.1h-1.4c0-.1 0-.1-.1-.2 0-.1-.1-.1-.1-.1H378.6c-.1 0-.2.1-.2.2v.1h-1.3c-.1 0-.2 0-.3-.1l-.1-.1-.1-.1v-.2c0-.1 0-.1.1-.2s.1-.1.2-.1V68l-.1-.1s-.1-.1-.1-.2c0 0-.1-.1-.1-.2v-.2-.1c0-.1 0-.2.1-.2 0-.1.1-.1.1-.2s.1-.1.2-.1v-.1-1.1-.2c0-.1.1-.1.1-.2s.1-.1.2-.1H378.9zm0 .1h-1.3-.1s-.1 0-.1.1c-.1.1-.1.1-.1.2v1.2c-.1 0-.1.1-.1.1l-.2.2v.4l.1.1h.1s.1 0 .1.1v.5h-.1-.1c-.1 0-.1.1-.1.2v.2H378.2v-.1c0-.1.1-.2.2-.2.1-.1.2-.1.3-.1h.2c.1 0 .2.1.2.2l.1.1h1.3c0-.1.1-.1 0-.2V68c0-.1-.1-.1-.1-.1h-.1v-.4-.1h.1c.1 0 .1-.1.2-.1l.1-.1V67v-.1-.1c0-.1-.1-.1-.1-.2l-.2-.2v-.1-1.2-.1c0-.1 0-.1-.1-.1-.1-.1-.1-.1-.2-.1-.3.3-.7.3-1.2.3z"/><path fill="#F8B900" d="M378.9 65.1h1.3c.1 0 .1 0 .2.1l.1.1V66.7c.1 0 .2.1.2.2s.1.1.1.2v.4s0 .1-.1.1c0 .1-.1.1-.2.1h-.1v.5h.1c.1 0 .1.1.1.1V68.6h-1.3c0-.1 0-.1-.1-.1l-.2-.2h-.1-.1c-.1 0-.2 0-.3.1l-.2.2v.1H377.1v-.1-.1c0-.1 0-.1.1-.2h.2V68v-.2s-.1 0-.1-.1h-.1l-.1-.1v-.1-.1-.1-.1c0-.1.1-.2.2-.2l.1-.1v-1.2c0-.1 0-.2.1-.2l.1-.1h.1c.3-.3.8-.3 1.2-.3zm.8 2.1h.2c.1 0 .2-.1.2-.1.1 0 .1-.1.1-.2s.1-.1.1-.2v-.2-.2-.1c0-.1 0-.1-.1-.2l-.1-.1-.1-.1c-.1 0-.1-.1-.2-.1h-.1-.1-.1-.1-.1c-.1 0-.1 0-.2.1l-.1.1-.1.1s0 .1-.1.1c0 .1-.1.1-.1.2v.4c0 .1 0 .1.1.2 0 .1.1.1.1.1.1.1.1.1.2.1.5.1.5.1.6.1zm-2.3-.7v.2s0 .1.1.1c0 .1.1.1.1.1l.1.1s.1 0 .1.1h.7c.1 0 .1-.1.2-.1l.2-.2s0-.1.1-.2v-.1-.1-.1-.1c0-.1-.1-.1-.1-.2l-.1-.1c-.1 0-.2-.1-.3-.1h-.1-.1-.1-.1c-.1 0-.1 0-.2.1-.1 0-.1.1-.2.1-.1.1-.1.2-.2.3-.1 0-.1.1-.1.2 0-.1 0-.1 0 0z"/><path d="M379.7 67.2h-.2c-.1 0-.2-.1-.2-.1l-.1-.1s-.1-.1-.1-.2v-.1-.1-.1-.1c0-.1 0-.1.1-.2 0 0 0-.1.1-.1l.1-.1.1-.1c.1 0 .1-.1.2-.1h.5c.1 0 .1.1.2.1 0 0 .1 0 .1.1l.1.1c0 .1.1.1.1.2v.5c0 .1 0 .1-.1.2 0 .1-.1.1-.1.2-.1.1-.1.1-.2.1h-.1c-.4-.1-.4-.1-.5-.1zm0-.1h.4s.1 0 .1-.1c0 0 .1 0 .1-.1l.1-.1v-.2-.2c0-.1 0-.1-.1-.2 0-.1-.1-.1-.1-.1l-.1-.1s-.1 0-.1-.1h-.1-.1-.1-.1-.1c-.1 0-.2.1-.2.2-.1.1-.1.1-.1.2v.1l.1-.1c.1 0 .1.1.1.2l-.1.1h-.1s-.1 0-.1-.1v.1c0 .1.1.1.1.2h.1c.1.1.1.1.2.1h.1c0 .2.1.2.1.2zM377.4 66.5c0-.1 0-.1 0 0v-.2c0-.1.1-.2.2-.3 0 0 .1-.1.2-.1s.1-.1.2-.1h.4c.1 0 .2.1.3.1l.1.1c0 .1.1.1.1.2v.4c0 .1 0 .1-.1.2 0 .1-.1.2-.2.2s-.1.1-.2.1h-.4-.1-.1-.1s-.1 0-.1-.1l-.1-.1-.1-.1s0-.1-.1-.1v-.1l.1-.1zm.7.6h.1c.1 0 .1 0 .2-.1.1 0 .1-.1.2-.2 0 0 0-.1.1-.1v-.1h-.2l-.1-.1v-.1c0-.1.1-.1.1-.1h.2v-.1c0-.1-.1-.2-.1-.2l-.1-.1s-.1-.1-.2-.1h-.2-.1-.1-.1-.1s-.1 0-.1.1c0 0-.1 0-.1.1s-.1.1-.1.2v.4c0 .1.1.2.2.2s.1.1.2.1c.2.2.2.2.3.2z"/><path fill="#F8B900" d="M379.7 67.1h-.1-.1c-.1 0-.1-.1-.2-.1h-.1s-.1-.1-.1-.2v-.1l.1.1h.1s.1 0 .1-.1 0-.2-.1-.2-.1 0-.1.1v-.1c0-.1.1-.1.1-.2l.2-.2h.5c.1 0 .1 0 .1.1 0 0 .1 0 .1.1l.1.1c0 .1.1.1.1.2v.4c0 .1-.1.1-.1.1s0 .1-.1.1l-.1.1h-.1-.1-.1c0-.2 0-.2-.1-.2zM378.1 67.1h-.2c-.1 0-.1-.1-.2-.1-.1-.1-.1-.2-.2-.2v-.1-.1-.2c0-.1.1-.1.1-.2 0 0 .1 0 .1-.1 0 0 .1 0 .1-.1H378.4c.1 0 .1 0 .2.1l.1.1c.1.1.1.1.1.2v.1c0-.1-.1-.1-.2 0-.1 0-.1.1-.1.1v.1l.1.1h.2v.1s0 .1-.1.1l-.2.2c-.1 0-.1.1-.2.1-.1-.2-.1-.2-.2-.2z"/><g fill="#6B5F4E"><path d="M410.3 88.2c0-.5.1-1.2.1-1.6 0-.2.1-.3.3-.3.1 0 .2.1.3.2.1.3.3 1.2.4 1.3.1-.3.3-1 .4-1.3.1-.2.2-.2.3-.2.1 0 .3.1.3.3 0 .4.1 1.2.1 1.6 0 .1-.1.1-.2.1s-.2 0-.2-.1c0-.4-.1-1.5-.1-1.5v-.1.1c-.1.2-.3 1.1-.5 1.4 0 .1-.1.2-.2.2s-.2 0-.2-.2c-.1-.2-.3-1.1-.4-1.4v-.1.1c0 .2-.1 1.1-.1 1.4 0 .1-.1.1-.2.1-.1.2-.1.1-.1 0zM414.2 88.3c-.1 0-.1 0-.2-.1 0-.1-.1-.3-.2-.6h-.7c-.1.2-.1.4-.2.5 0 .1-.1.1-.2.1s-.2-.1-.2-.1 0-.1.6-1.8c0-.1.1-.2.2-.2s.2.1.3.2c.2.5.5 1.4.6 1.7v.1c.2.2.1.2 0 .2zm-.4-.9c-.1-.3-.2-.5-.2-.6v-.1.1c0 .1-.2.6-.2.6h.3.1zM415.3 88.4c-.2 0-.6 0-.6-.4v-.6-.8c0-.4.3-.4.6-.4h.2c.6 0 1 .5 1 1 0 1.2-.9 1.2-1.2 1.2zm0-1.8c-.1 0-.3 0-.3.1v1.2c0 .1.1.1.3.1.3 0 .9 0 .9-.8 0-.4-.3-.8-.7-.8 0 .2-.1.2-.2.2zM417.6 86.6c-.3 0-.3 0-.3.1v.4c0 .1 0 .1.3.1h.3c.2 0 .2.1.2.1 0 .1 0 .2-.1.2h-.3c-.3 0-.4 0-.4.1v.5c0 .1.1.1.4.1h.4c.1 0 .1.1.1.1 0 .1-.1.1-.2.2h-.7c-.3 0-.4-.1-.4-.3v-.5-.9c0-.2.1-.3.4-.3h.7c.1 0 .2.1.2.1 0 .1-.1.1-.2.1 0-.1-.3-.1-.4-.1zM419.6 88.2c0 .1-.1.1-.2.1s-.2 0-.2-.1v-1-.7c0-.1.1-.1.2-.1s.2 0 .2.1v1.7zM420.1 88.2v-.9-.7c0-.2.1-.3.2-.3s.2.1.3.1c.2.3.6 1.1.8 1.4v-.1-1.4c0-.1.1-.1.2-.1s.2 0 .2.1v1.6c0 .2-.1.3-.2.3s-.2 0-.2-.1c-.2-.3-.7-1.2-.8-1.5v-.1V88.1c0 .1-.1.1-.2.1-.2.1-.3.1-.3 0zM423.5 87.1v-.7c0-.1 0-.1.2-.1.1 0 .2 0 .2.1v1.4c0 .4-.3.6-.6.6-.2 0-.4-.1-.4-.2s.1-.2.2-.2h.2c.2 0 .3-.1.3-.3-.1-.2-.1-.4-.1-.6zM425.6 88.3c-.1 0-.1 0-.2-.1 0-.1-.1-.3-.2-.6h-.7c-.1.2-.1.4-.2.5 0 .1-.1.1-.2.1s-.2-.1-.2-.1 0-.1.6-1.8c0-.1.1-.2.2-.2s.2.1.3.2c.2.5.5 1.4.6 1.7v.1c.2.2.1.2 0 .2zm-.4-.9c-.1-.3-.2-.5-.2-.6v-.1.1c0 .1-.2.6-.2.6h.3.1zM426.2 88.3c-.1 0-.2 0-.2-.1v-.7-.7c0-.3 0-.5.5-.5h.2c.4 0 .6.3.6.6s-.2.6-.6.6h-.4v.6c.1.2 0 .2-.1.2zm.4-1.8c-.2 0-.2 0-.2.3v.3c0 .1.1.1.2.1h.2c.2 0 .3-.2.3-.4s-.1-.3-.4-.3h-.1zM428.9 88.3c-.1 0-.1 0-.2-.1 0-.1-.1-.3-.2-.6h-.7c-.1.2-.1.4-.2.5 0 .1-.1.1-.2.1s-.2-.1-.2-.1 0-.1.6-1.8c0-.1.1-.2.2-.2s.2.1.3.2c.2.5.5 1.4.6 1.7v.1c.2.2.1.2 0 .2zm-.4-.9c-.1-.3-.2-.5-.2-.6v-.1.1c0 .1-.2.6-.2.6h.3.1zM429.4 88.2v-.9-.7c0-.2.1-.3.2-.3s.2.1.3.1c.2.3.6 1.1.8 1.4v-.1-1.4c0-.1.1-.1.2-.1s.2 0 .2.1v1.6c0 .2-.1.3-.2.3s-.2 0-.2-.1c-.2-.3-.7-1.2-.8-1.5v-.1V88.1c0 .1-.1.1-.2.1s-.3.1-.3 0z"/></g><g fill="#6B5F4E"><path d="M378.9 86.1l-.1-.2c.1 0 .1-.1.2-.1.1-.1.1-.1.1-.2l.2.1v2.4h-.3v-2h-.1zM380.6 87.5v.1c0 .1 0 .2.1.2s.1 0 .1-.1V87l-.2.1h-.1c-.2 0-.4-.2-.4-.5V86c0-.3.1-.4.4-.4h.2c.2 0 .4.1.4.4v1.6c0 .3-.1.5-.4.5h-.2c-.2 0-.4-.2-.4-.5v-.1h.5zm.3-.6V86c0-.1 0-.2-.1-.2s-.1.1-.1.2v.7c0 .1 0 .2.1.2h.1zM382.3 86.8c-.1 0-.2-.1-.2-.3V86c0-.3.1-.4.4-.4h.2c.2 0 .4.1.4.4v.5c0 .2-.1.3-.2.3.1 0 .2.1.2.3v.6c0 .3-.1.4-.4.4h-.2c-.2 0-.4-.1-.4-.4v-.6c-.1-.2 0-.3.2-.3zm.2 1c.2 0 .2-.1.2-.2v-.5c0-.1-.1-.2-.2-.2s-.2.1-.2.2v.5c0 .1.1.2.2.2zm-.2-1.7v.4c0 .1 0 .2.1.2s.1-.1.1-.2v-.4c0-.1 0-.2-.1-.2 0 0-.1 0-.1.2zM384.4 86.3v-.2c0-.1 0-.2-.1-.2h-.1c-.1 0-.1 0-.1.1v.8l.2-.1h.1c.2 0 .3.1.3.4v.6c0 .3-.1.4-.3.4h-.2c-.2 0-.3-.1-.3-.4V86c0-.3.1-.4.3-.4h.2c.2 0 .3.1.3.4v.3h-.3zm-.3.6v.7c0 .1 0 .2.1.2h.1c.1 0 .1-.1.1-.2v-.5c0-.1 0-.2-.1-.2h-.2z"/></g><g fill="#6B5F4E"><path d="M388.7 88.1h-.7-.1c-.3-.6-.7-1.1-1.1-1.7v-.1 1.8h-.8v-2.6H386.9c.3.6.7 1.1 1.1 1.7v-1.8h.8c-.1.9-.1 1.8-.1 2.7zM401.5 85.5v2.6h-.8V88c-.5.2-.9.2-1.3-.3-.2-.3-.2-.7 0-1.1.1-.2.3-.3.6-.4.2 0 .5 0 .7.1v-1c.3.2.5.2.8.2zm-1.4 1.7v.4c0 .2.1.3.3.3.2 0 .3-.1.3-.3v-.7-.1c0-.2-.2-.2-.3-.2-.2 0-.3.1-.3.3v.3zM392.7 88.1h-.8V88v-1c0-.2-.1-.3-.3-.4-.2 0-.4 0-.4.2v1.3h-.8v-1.7h.8v.2h.1c.4-.3.9-.3 1.2.1.1.2.2.3.2.5v.9c0-.1 0-.1 0 0zM397.5 88.1h-.8v-1.7h.8v.2h.1c.4-.3 1-.3 1.3.1.1.1.2.3.2.4v1h-.8V88v-1c0-.2-.1-.3-.2-.4-.2-.1-.3 0-.4.1 0 .1-.1.1-.1.2-.1.4-.1.7-.1 1.2 0-.1 0-.1 0 0zM402.9 86.2c.3 0 .6.1.8.3.4.4.4.9 0 1.3-.5.4-1.3.4-1.7 0-.4-.4-.4-1 .1-1.4.3-.1.5-.2.8-.2zm.3 1v-.4-.1c0-.1-.1-.2-.2-.3-.2-.1-.4.1-.4.3v.9c0 .2.1.3.3.3.2 0 .3-.1.3-.3v-.4zM396.5 87.2H395v.5c0 .2.2.2.3.2.1 0 .3-.1.3-.3v-.2h.8v.1c-.2.3-.4.5-.7.6-.5.1-.9 0-1.2-.3-.4-.4-.4-.9 0-1.3.3-.2.6-.3.9-.3.3 0 .6.2.8.4.2.2.3.4.3.6 0-.1 0 0 0 0zm-.8-.3v-.2c0-.2-.2-.3-.3-.3-.2 0-.3.1-.3.3v.2s0 .1.1.1c.1-.1.3-.1.5-.1z"/><path d="M393.1 88.1v-1.7h-.4v-.2h.4v-.3h.8v.3h.4v.3h-.4v1.7c-.3-.1-.5-.1-.8-.1zM390 86.3V88h-.8v-1.7h.8zM389.2 85.5h.8v.5h-.8v-.5z"/></g><path fill="#6B5F4E" d="M376.6 87.1v.1c0 .2-.1.3-.3.3h-.2c-.2 0-.3-.1-.3-.3v-1.3c0-.2.1-.3.3-.3h.2c.2 0 .3.1.3.3v.2h-.2v-.2c0-.1 0-.1-.1-.1s-.1 0-.1.1v1.3c0 .1 0 .1.1.1h.1c.1 0 .1 0 .1-.1v-.1h.1z"/><path fill="#6B5F4E" d="M376.2 88.1c-.9 0-1.6-.7-1.6-1.6 0-.9.7-1.6 1.6-1.6s1.6.7 1.6 1.6c0 .9-.7 1.6-1.6 1.6zm0-2.9c-.7 0-1.3.6-1.3 1.3 0 .7.6 1.3 1.3 1.3s1.3-.6 1.3-1.3c.1-.7-.5-1.3-1.3-1.3z"/></g><path fill="#F7E835" d="M121.7 43.6h22.7v6.1h-22.7z"/><path fill="#E20613" d="M189.2 43.6c0 1.7-1.4 3-3 3-1.7 0-3-1.4-3-3s1.4-3 3-3 3 1.4 3 3z"/><g><g fill="#FFF"><path d="M37.7 69.5h-1.5c-.1 0-.1 0-.2-.1-.7-1.1-1.4-2.3-2.1-3.4 0 0 0-.1-.1-.1v3.6h-1.6v-5.2h1.5c.1 0 .1 0 .2.1.7 1.1 1.4 2.3 2.1 3.4 0 0 0 .1.1.1v-3.6h1.6v5.2zM63.1 64.4v5.2h-1.5v-.2c-1 .5-1.9.4-2.6-.6-.4-.6-.4-1.5.1-2.1.3-.4.7-.6 1.1-.7.5-.1.9 0 1.3.3v-1.9h1.6zm-2.7 3.4v.7c0 .3.3.6.6.6s.6-.2.6-.6v-1.4-.1c-.1-.3-.3-.5-.7-.5-.3 0-.5.2-.5.6v.7zM45.5 69.5H44v-.1-2c0-.4-.2-.6-.5-.7-.3-.1-.7.1-.9.4 0 .1-.1.2-.1.3v2.1H41v-3.4h1.5v.3c.1 0 .1-.1.1-.1.7-.6 1.8-.6 2.4.1.3.3.4.7.4 1.1.2.7.2 1.4.1 2 .1 0 .1 0 0 0zM55.2 69.5h-1.5v-3.4h1.5v.4c.1 0 .1-.1.1-.1.8-.6 1.9-.5 2.5.2.2.2.3.5.3.8v2.1h-1.5v-.1-2c0-.4-.2-.6-.5-.7-.3-.1-.7 0-.9.3-.1.1-.1.3-.1.4v2c.1 0 .1.1.1.1zM66 65.9c.6 0 1.2.2 1.6.6.8.7.8 1.9 0 2.6-.9.9-2.5.9-3.4 0-.8-.8-.7-2 .2-2.7.5-.4 1-.5 1.6-.5zm.5 1.9s.1 0 0 0v-.7-.2c0-.3-.1-.5-.4-.6-.4-.2-.8.1-.8.5V68.7c.1.3.3.6.6.6.4 0 .6-.2.7-.6 0-.3-.1-.6-.1-.9zM53.2 67.8h-2.9v1c.1.3.4.5.7.5.3 0 .5-.2.6-.6v-.4h1.5s0 .1-.1.1c-.3.6-.8 1-1.5 1.2-.9.2-1.7.1-2.4-.6-.8-.7-.7-1.9.1-2.6.5-.5 1.2-.7 1.9-.6.7.1 1.2.3 1.7.8.2.3.4.6.4 1v.2zm-1.6-.5v-.5c-.1-.3-.3-.5-.6-.5s-.6.2-.6.5v.4c0 .1 0 .1.1.1h1.1c-.1 0-.1 0 0 0z"/><path d="M46.4 69.5v-3.4h-.8v-.5H46.4v-.7H48v.7h.8v.5H48v3.4h-1.6zM40.1 66.1v3.4h-1.5v-3.4h1.5zM38.6 64.4h1.5v1h-1.5v-1z"/></g></g><g fill="#FFF"><path d="M71.8 75.1v-1.7c0-.1 0-.1.1-.1h.6l.1.1 1 2.2s.9-2 1-2.2c0-.1.1-.1.1-.1h.6c.1 0 .1 0 .1.1v3.4s0 .1-.1.1h-.6c-.1 0-.1 0-.1-.1v-1.4-.2c-.1.2-.6 1.2-.7 1.5 0 .1-.1.1-.2.1h-.4c-.1 0-.1-.1-.1-.1l-.8-1.7v1.7c0 .1 0 .1-.1.1h-.5c-.1 0-.1 0-.1-.1.1-.4.1-1 .1-1.6 0 .1 0 .1 0 0zM87.6 75.1v-1.6c0-.1 0-.1.1-.1h.6c.1 0 .1 0 .1.1.1.2.9 2 .9 2v.1s0 .1.1.1l.1-.1c.1-.2.9-2 .9-2 0-.1 0-.2.1-.2h.8v3.4h-.7c-.1 0-.1 0-.1-.1v-.6-.9-.1.1c0 .1-.6 1.3-.7 1.5 0 0 0 .1-.1.1h-.6c-.1 0-.1 0-.1-.1-.1-.2-.6-1.4-.7-1.5v-.1V76.8h-.5c-.2 0-.2 0-.2-.2v-1.5zM85.6 77c-.3 0-.5-.1-.8-.2-.1-.1-.2-.1-.3-.2l-.4-.4c-.1-.1-.2-.3-.2-.4-.1-.2-.1-.5-.1-.8 0-.1.1-.3.1-.4.1-.1.1-.3.2-.4.2-.3.5-.5.8-.6.2-.1.4-.1.6-.1h.5c.1 0 .3.1.4.2.1 0 .2.1.2.1l.2.2h.2c0 .1.1.1.1.2.1.2.2.3.2.5 0 .1 0 .3.1.4v.4c-.1.2-.2.5-.3.7-.2.3-.6.6-.9.7-.2 0-.4.1-.6.1zm0-.7h.3c.2-.1.5-.2.6-.4.1-.2.2-.4.2-.6V75c0-.1-.1-.2-.1-.3l-.3-.3c-.2-.2-.4-.2-.6-.2h-.2c-.1 0-.2 0-.3.1-.2.1-.3.2-.4.3-.1.2-.2.4-.2.6 0 .3.1.5.2.7.1.1.3.3.5.3 0 .1.2.1.3.1zM100.9 76v.8c0 .1 0 .1-.1.1h-.5c-.1 0-.1 0-.1-.1v-.1-3.3-.1c0-.1 0-.1.1-.1h1.2c.2 0 .4 0 .6.1.2.1.3.2.4.4.1.2.2.4.2.6 0 .2 0 .3-.1.4 0 .1 0 .1-.1.2-.1.2-.3.4-.5.5v.1c.1.2.3.4.4.6.1.2.2.4.4.6h-.7c-.2-.3-.4-.7-.6-1-.2-.2-.3-.5-.5-.7V75.8c-.1.1-.1.2-.1.2zm0-1.5v.4s0 .1.1.1h.7c.1 0 .2-.1.3-.2.1-.2.1-.4 0-.6-.1-.1-.2-.2-.3-.2h-.7c-.1 0-.1 0-.1.1v.4zM93.8 74.7v-1.2c0-.1 0-.1.1-.1h.6v2.5c0 .2.1.3.3.4.3.2.7-.1.7-.4v-2.3-.1s0-.1.1-.1h.6v2.4c0 .3-.1.5-.3.7-.1.2-.3.3-.5.4-.3.1-.5.1-.8 0-.3-.1-.4-.3-.6-.5 0-.1-.1-.3-.1-.4-.1-.5-.1-.9-.1-1.3zM83.4 74.4h-.3c-.1 0-.2 0-.2-.1-.1-.1-.2-.1-.3-.2-.1 0-.2-.1-.3 0-.2 0-.5.1-.7.3-.1.1-.2.2-.2.3-.1.1-.2.3-.2.6s.1.5.3.7l.3.3c.3.1.5.1.7.1.2 0 .3-.1.5-.2h.7c.1 0 .1 0 0 .1-.1.2-.2.4-.4.5-.1.1-.3.2-.5.3-.1 0-.2.1-.4.1H82c-.3 0-.6-.1-.9-.3-.2-.1-.4-.3-.5-.4-.1-.1-.2-.3-.3-.4-.1-.1-.1-.3-.1-.4V75c0-.2.1-.3.2-.4 0-.1.1-.1.2-.2.1-.2.3-.4.5-.5.2-.1.3-.2.5-.2.1 0 .2-.1.4-.1.4 0 .7.1.8.2.1.1.2.1.3.2.2.1.3.3.4.5 0 0 0 .1.1.1v.1c.1-.3 0-.3-.2-.3zM71.5 76.8c0 .1 0 .1 0 0-.2.1-.4.1-.6.1 0 0-.1 0-.1-.1v-.4s0-.1-.1-.1h-1.1-.1c0 .1-.1.2-.2.3-.1.1-.1.2-.2.2h-.3-.5c.1-.1.1-.2.2-.3.2-.2 2.2-3.2 2.3-3.2h.5l.2 3.5zm-.6-1.6v-.4s0 .1-.1.1c-.2.2-.3.4-.5.7v.1h.7c-.1-.2-.1-.3-.1-.5zM98.2 75.2v-1.7c0-.1 0-.1.1-.1h1.7c.1 0 .1 0 .1.1v.5c0 .1 0 .1-.1.1h-1c-.1 0-.1 0-.1.1v.6c0 .1 0 .1.1.1h1v.6h-1.1c-.1 0-.1 0-.1.1v.6c0 .1 0 .1.1.1h1c.1 0 .1 0 .1.1v.6c0 .1 0 .1-.1.1h-1.7c-.1 0-.1 0-.1-.1v-.7c.1-.4.1-.8.1-1.1zM91.4 75.1v-1.6c0-.2 0-.2.2-.2h1c.2 0 .5.1.6.2.2.1.3.3.4.5.1.2.1.3.1.5s-.1.4-.2.5c-.1.2-.3.4-.5.4-.2.1-.3.1-.5.1h-.4v1.1c0 .1 0 .1-.1.1h-.6c-.1 0-.1 0-.1-.1.1-.4.1-.9.1-1.5zm.7-.6v.4c0 .1 0 .1.1.1H92.8c.1 0 .1-.1.2-.2 0-.1.1-.1.1-.2v-.2c0-.2-.2-.3-.4-.4h-.5c-.1.2-.1.3-.1.5z"/><path d="M67.5 75.1v-1.6c0-.1 0-.1.1-.1h1.7c.1 0 .1 0 .1.1v.5c0 .1 0 .1-.1.1h-1c-.1 0-.1 0-.1.1v.6c0 .1 0 .1.1.1h1c.1 0 .1 0 .1.1v.6c0 .1 0 .1-.1.1h-1c-.1 0-.1 0-.1.1V77c0 .1 0 .1-.1.1h-.6v-.6-1.4zM78.3 76.2v-.5c0-.1 0-.1-.1-.2-.2-.4-.4-.7-.6-1.1-.2-.3-.3-.6-.5-.9v-.1h.6c.1 0 .1 0 .1.1.2.4.4.8.6 1.1l.1.1.1-.1.6-1.2s0-.1.1-.1h.7c.1 0 .1 0 0 .1-.3.7-.7 1.4-1 2.1 0 .1-.1.1-.1.2v1.1c0 .1 0 .1-.1.1h-.6c-.1 0-.1 0-.1-.1.2-.2.2-.4.2-.6zM97.5 75.5v1.4c0 .1 0 .1-.1.1h-.6c-.1 0-.1 0-.1-.1v-.5-2.1c0-.1 0-.1-.1-.1h-.4s-.1 0-.1-.1v-.6c0-.1 0-.1.1-.1h1.7c.1 0 .1 0 .1.2v.6h-.5c-.1 0-.1 0-.1.1.1.3.1.8.1 1.2z"/><path d="M76.4 75.1v-1.7c0-.1 0-.1.1-.1h.6c.1 0 .1 0 .1.1v2.7c0 .1 0 .1.1.1h.7s.1 0 .1.1v.6h-1.5c-.1 0-.1 0-.1-.1-.1-.5-.1-1.1-.1-1.7 0 .1 0 .1 0 0zM75.6 75.1v-1.6c0-.1 0-.1.1-.1h.6v3.5h-.7c-.1 0-.1 0-.1-.1v-.4c.1-.4.1-.8.1-1.3z"/></g><g fill="#FFF"><path d="M107.8 76.1c0 .2-.1.5-.3.6-.2.2-.4.3-.6.3h-1.4v-.6h.2v-2.5h-.2v-.6h1.4c.2 0 .5.1.6.3.2.2.3.4.3.6v1.9zm-.7 0v-2c0-.1 0-.1-.1-.2 0-.1-.1-.1-.2-.1h-.5v2.5h.5c.1 0 .1 0 .2-.1.1 0 .1 0 .1-.1zM108.9 77h-.7v-3.7h.7V77zM111.6 76.1c0 .2-.1.5-.3.6-.2.2-.4.3-.6.3h-.5c-.2 0-.5-.1-.6-.2-.2-.2-.3-.4-.3-.6l.7-.2v.2c0 .1 0 .1.1.2 0 .1.1.1.1.1h.5c.1 0 .1 0 .2-.1 0-.1.1-.1.1-.2v-.3c0-.2-.1-.2-.2-.3l-1-.4c-.4-.1-.5-.4-.5-.8v-.3c0-.2.1-.5.3-.6.2-.2.4-.3.6-.3h.5c.2 0 .5.1.6.2.2.2.3.4.3.6l-.7.2V74c0-.1 0-.1-.1-.2 0-.1-.1-.1-.2-.1h-.5c-.1 0-.1 0-.1.1s-.1.1-.1.2v.1c0 .2.1.3.2.3l1 .4c.3.1.5.4.5.8v.5zM114.3 77h-.7v-.3l-.7-1.2-.2.3V77h-.7v-3.7h.7v1.4l.9-1.1v-.3h.7v.5l-.9 1.1.9 1.7v.4zM119 76.1c0 .2-.1.5-.3.6-.2.2-.4.3-.6.3h-.5c-.2 0-.5-.1-.6-.2-.2-.2-.3-.4-.3-.6l.7-.2v.2c0 .1 0 .1.1.2 0 .1.1.1.1.1h.5c.1 0 .1 0 .2-.1 0-.1.1-.1.1-.2v-.3c0-.2-.1-.2-.2-.3l-1-.4c-.4-.1-.5-.4-.5-.8v-.3c0-.2.1-.5.3-.6.2-.2.4-.3.6-.3h.5c.2 0 .5.1.6.2.2.2.3.4.3.6l-.7.2V74c0-.1 0-.1-.1-.2 0-.1-.1-.1-.2-.1h-.5c-.1 0-.1 0-.1.1s-.1.1-.1.2v.1c0 .2.1.3.2.3l1 .4c.3.1.5.4.5.8v.5zM121.6 73.7l-.8 1.5V77h-.7v-1.8l-.8-1.5v-.5h.7v.3l.4.9.4-.9v-.3h.7v.5zM124.2 76.1c0 .2-.1.5-.3.6-.2.2-.4.3-.6.3h-.5c-.2 0-.5-.1-.6-.2-.2-.2-.3-.4-.3-.6l.7-.2v.2c0 .1 0 .1.1.2 0 .1.1.1.1.1h.5c.1 0 .1 0 .2-.1 0-.1.1-.1.1-.2v-.3c0-.2-.1-.2-.2-.3l-1-.4c-.4-.1-.5-.4-.5-.8v-.3c0-.2.1-.5.3-.6.2-.2.4-.3.6-.3h.5c.2 0 .5.1.6.2.2.2.3.4.3.6l-.7.2V74c0-.1 0-.1-.1-.2 0-.1-.1-.1-.2-.1h-.5c-.1 0-.1 0-.1.1s-.1.1-.1.2v.1c0 .2.1.3.2.3l1 .4c.3.1.5.4.5.8v.5zM126.8 73.9h-.8V77h-.7v-3.1h-.8v-.6h2.3v.6zM129.4 77H127v-3.7h2.3v.6h-1.5v.9h1.1v.6h-1.1v.9h1.7v.7zM132.1 77h-.7v-1.7l-.2.8h-.5l-.2-.8V77h-.7v-3.7h.7l.5 1.7.5-1.7h.7V77z"/></g><path fill="#FFF" d="M32 73.1h30.8v4.4H32z"/><g fill="#1D1D1B"><path d="M33.8 76.7v-2.8h.6V75h2.4v-1.2h.6v2.8h-.6v-1.3h-2.4v1.3h-.6zM39.7 76.7l-1.8-2.8h.7l1.2 2.1c.1.2.2.3.2.5.1-.2.2-.3.2-.5l1.2-2.1h.6l-1.8 2.8h-.5zM46 75.7l.6.1c-.1.3-.4.5-.7.7-.3.2-.7.2-1.2.2s-.9-.1-1.2-.2c-.3-.1-.5-.3-.7-.5-.2-.2-.2-.5-.2-.8 0-.3.1-.6.3-.8.2-.2.4-.4.8-.5.3-.1.7-.2 1.1-.2.5 0 .8.1 1.2.2.3.1.5.3.7.6l-.6.1c-.1-.2-.3-.4-.5-.5-.2-.1-.5-.1-.8-.1-.4 0-.6.1-.9.2-.2.1-.4.2-.5.4-.1.2-.1.4-.1.5 0 .2.1.5.2.6.1.2.3.3.5.4.2.1.5.1.8.1.3 0 .6-.1.9-.2.1.1.2-.1.3-.3zM47.1 75.8v-.4h1.7v.4h-1.7zM49.3 75.3c0-.5.2-.8.6-1.1.4-.3.9-.4 1.6-.4.4 0 .8.1 1.2.2.3.1.6.3.8.5.2.2.3.5.3.8 0 .3-.1.5-.3.8-.2.2-.5.4-.8.5s-.7.2-1.1.2c-.4 0-.8-.1-1.2-.2-.3-.1-.6-.3-.8-.5-.2-.3-.3-.5-.3-.8zm.6 0c0 .3.1.6.4.8.3.2.7.3 1.1.3.5 0 .8-.1 1.1-.3.3-.2.4-.5.4-.8 0-.2-.1-.4-.2-.6-.1-.2-.3-.3-.6-.4-.2-.1-.5-.1-.8-.1-.4 0-.8.1-1.1.3-.1.1-.3.4-.3.8zM57.3 76.3v.3h-3c0-.1 0-.2.1-.2.1-.1.2-.3.4-.4.2-.1.4-.3.7-.4.5-.3.8-.5 1-.6.2-.1.3-.3.3-.4 0-.1-.1-.3-.2-.3-.2-.1-.4-.1-.6-.1-.3 0-.5.1-.7.2-.2.1-.2.2-.2.4h-.6c0-.3.2-.5.4-.6s.6-.2 1-.2.8.1 1 .2c.3.2.4.3.4.6 0 .1 0 .2-.1.3-.1.1-.2.2-.4.3-.2.1-.5.3-.9.5-.3.2-.6.3-.7.4-.1.1-.2.1-.2.2h2.3zM60.8 76.3v.3h-3c0-.1 0-.2.1-.2.1-.1.2-.3.4-.4.2-.1.4-.3.7-.4.5-.3.8-.5 1-.6.2-.1.3-.3.3-.4 0-.1-.1-.3-.2-.3-.2-.1-.4-.1-.6-.1-.3 0-.5.1-.7.2-.2.1-.2.2-.2.4H58c0-.3.2-.5.4-.6s.6-.2 1-.2.8.1 1 .2c.3.2.4.3.4.6 0 .1 0 .2-.1.3-.1.1-.2.2-.4.3-.2.1-.5.3-.9.5-.3.2-.6.3-.7.4-.1.1-.2.1-.2.2h2.3z"/></g><g><path fill="#3C3C3B" d="M339.6 102.1h-106l.1-53.5h1.5V47h-1.5v-2.3h1.4V43h-1.4v-2.2h1.4v-1.6h-1.4v-1.9h1.4v-1.6h-1.4v-2h1.5V32h-1.5V2.7h105.6V32h-2v1.7h2v2h-2v1.6h2v1.9h-2v1.6h2V43h-2v1.7h2V47h-2v1.6h2z"/><path d="M235.2 32h102.1v1.6H235.2zM235.2 47h102.1v1.6H235.2zM235.1 35.7h58.7v1.6h-58.7zM235.1 39.2h58.7v1.6h-58.7zM235.1 43h58.7v1.6h-58.7zM294.631 33.607v13.3h-.8v-13.3zM330.366 33.672v13.3h-.8v-13.3z"/><path d="M330.3 35.7h6.9v1.6h-6.9zM330.3 39.2h6.9v1.6h-6.9zM330.3 43h6.9v1.6h-6.9z"/><path fill="#333" d="M329 0h-47.4l-.8 2.7h49.5z"/><g fill="#FFF"><path d="M302 42.6h-1.2c-.1 0-.1 0-.1-.1-.6-1-1.1-1.9-1.7-2.9 0 0 0-.1-.1-.1v3.1h-1.3v-4.4H298.8c.1 0 .1 0 .1.1.6 1 1.1 1.9 1.7 2.9 0 0 0 .1.1.1v-3.1h1.3v4.4zM322.5 38.2v4.4h-1.2v-.1c-.8.4-1.5.3-2.1-.5-.4-.5-.3-1.3.1-1.8.2-.3.5-.5.9-.6.4-.1.7 0 1.1.3v-1.6c.4-.1.8-.1 1.2-.1zm-2.2 2.9v.6c0 .3.2.5.5.5s.5-.2.5-.5v-1.2-.1c-.1-.3-.3-.4-.5-.4s-.4.2-.4.5c-.1.2-.1.4-.1.6zM308.3 42.6h-1.2v-.1-1.7c0-.3-.2-.5-.4-.6-.3-.1-.6.1-.7.3v2.1h-1.2v-2.9h1.2v.3l.1-.1c.6-.5 1.5-.5 2 .1.2.3.3.6.4.9-.2.6-.2 1.1-.2 1.7zM316.2 42.6H315v-2.9h1.2v.3l.1-.1c.6-.5 1.6-.5 2 .2.2.2.3.5.3.7v1.8h-1.2v-.1-1.7c0-.3-.1-.5-.4-.6-.3-.1-.5 0-.7.2-.1.1-.1.2-.1.3v1.9zM324.8 39.5c.5 0 .9.2 1.3.5.7.6.7 1.6 0 2.2-.7.7-2 .7-2.8 0-.7-.7-.6-1.7.2-2.3.4-.3.9-.4 1.3-.4zm.5 1.6v-.6-.1c0-.2-.1-.4-.3-.5-.3-.1-.7.1-.7.5V42c0 .3.2.5.5.5s.5-.2.5-.5v-.9zM314.5 41.1h-2.4V42c.1.3.3.4.5.4s.4-.2.5-.5v-.4h1.2v.1c-.2.6-.7.9-1.2 1-.7.2-1.4 0-1.9-.5-.6-.6-.6-1.6.1-2.2.4-.4 1-.6 1.5-.5.5 0 1 .3 1.4.7.2.2.3.5.3.8v.2zm-1.3-.4v-.4c0-.3-.3-.4-.5-.5-.2 0-.5.2-.5.4v.3c0 .1 0 .1.1.1.2.1.5.1.9.1-.1 0 0 0 0 0z"/><path d="M309 42.6v-2.9h-.7v-.4h.7v-.6h1.3v.6h.7v.4h-.7v3c-.4-.1-.8-.1-1.3-.1zM303.9 39.7v2.9h-1.2v-2.9h1.2zM302.7 38.2h1.2v.9h-1.2v-.9z"/></g><g fill="#FFF"><path d="M287.2 50.9v-.8h.3l.5 1.1s.4-1 .5-1.1h.4v1.8h-.3v-.7-.1c0 .1-.3.6-.3.8 0 0 0 .1-.1.1h-.2c-.1 0-.1-.1-.1-.1l-.4-.8v.8h-.2c-.1-.5-.1-.7-.1-1zM294.6 50.9v-.8c0-.1 0-.1.1-.1h.4c0 .1.4 1 .4 1s0 .1 0 0 .4-1 .4-1v-.1H296.2v1.7h-.3v-.3-.4c0 .1-.3.6-.3.8h-.3c0-.1-.3-.7-.3-.7v.7h-.1-.1c-.1 0-.1 0-.1-.1-.1-.2-.1-.5-.1-.7z"/><path d="M293.7 51.8c-.1 0-.2 0-.4-.1-.1 0-.1-.1-.2-.1l-.2-.2c0-.1-.1-.1-.1-.2v-.4c0-.1 0-.1.1-.2 0-.1.1-.1.1-.2.1-.1.2-.2.4-.3.1 0 .2-.1.3-.1h.2c.1 0 .1 0 .2.1 0 0 .1 0 .1.1l.1.1s0 .1.1.1c0 0 0 .1.1.1 0 .1.1.2.1.3v.4c0 .1-.1.2-.1.3-.1.2-.3.3-.4.3h-.4zm0-.4h.1c.1 0 .2-.1.3-.2.1-.1.1-.2.1-.3v-.1c0-.1 0-.1-.1-.2 0-.1-.1-.1-.1-.1-.1-.1-.2-.1-.3-.1H293.4c-.1 0-.1.1-.2.2s-.1.2-.1.3c0 .1 0 .3.1.4 0 .1.1.1.2.2.2-.1.2 0 .3-.1zM300.9 51.3v.4h-.2v-1.6h.5c.1 0 .2 0 .3.1.1 0 .1.1.2.2s.1.2.1.3V51c-.1.1-.1.2-.2.2.1.1.1.2.2.3.1.1.1.2.2.3h-.3c-.1-.2-.2-.3-.3-.5-.1-.1-.1-.3-.2-.4-.3.1-.3.2-.3.4zm0-.7v.2h.3c.1 0 .1 0 .1-.1.1-.1.1-.2 0-.3 0-.1-.1-.1-.1-.1h-.3v.3zM297.5 50.7v-.6-.1h.3v1.2c0 .1 0 .2.1.2.2.1.3 0 .3-.2v-1.1-.1h.3v1.3c0 .1-.1.3-.1.4-.1.1-.2.1-.3.2h-.4l-.3-.3c0-.1-.1-.1-.1-.2.2-.3.2-.5.2-.7z"/><path d="M292.7 50.5h-.1-.1c0-.1-.1-.1-.2-.1h-.2c-.1 0-.3 0-.3.2l-.1.1s-.1.2-.1.3c0 .1 0 .3.1.4 0 0 .1.1.2.1s.2.1.3 0c.1 0 .2-.1.2-.1h.4c-.1.1-.1.2-.2.2-.1.1-.1.1-.2.1s-.1 0-.2.1h-.2c-.1 0-.3 0-.4-.1-.1 0-.2-.1-.2-.2-.1-.1-.1-.1-.1-.2v-.2-.3c0-.1 0-.1.1-.2 0 0 0-.1.1-.1.1-.1.1-.2.2-.2s.1-.1.2-.1h.2c.2 0 .3 0 .4.1.1 0 .1.1.2.1l.2.2v.1c-.1-.2-.2-.2-.2-.2zM287.1 51.7s0 .1 0 0h-.3v-.2h-.5s0 .1-.1.1c0 0 0 .1-.1.1h-.1H285.7l.1-.1c.1-.1 1-1.6 1.1-1.6h.2v1.7zm-.3-.8v-.2.1c-.1.1-.2.2-.2.3v.1h.4c-.2-.1-.2-.2-.2-.3zM299.6 50.9v-.8-.1h.8v.2h-.5v.3h.5v.3h-.5v.3h.5v.3h-.8v-.3-.2zM296.4 50.9v-.8c0-.1 0-.1.1-.1h.5c.1 0 .2 0 .3.1.1.1.1.2.2.2 0 .1.1.2 0 .3 0 .1 0 .2-.1.3-.1.1-.1.2-.2.2s-.1.1-.2.1h-.2V51.8h-.3c-.1-.4-.1-.7-.1-.9zm.3-.3v.2H297s.1 0 .1-.1v-.1-.1c0-.1-.1-.2-.2-.2h-.2v.3zM285.2 50.9v-.8-.1h.8v.3h-.5v.4h.5v.3h-.5v.6h-.3v-.3-.4zM290.3 51.4v-.3-.1l-.3-.6c-.1-.2-.1-.3-.2-.5h.4l.3.6v0l.3-.6h.3c-.2.3-.3.7-.5 1v.6h-.3v-.1zM299.3 51.1v.7h-.3v-.3-1.1c0-.1 0-.1-.1-.1h-.2V50h.7c.1 0 .1 0 .1.1v.3h-.3c.1.2.1.4.1.7zM289.4 50.9v-.8h.3V51.5h.3v.3h-.7c.1-.4.1-.6.1-.9zM289 50.9v-.8-.1h.3v1.8h-.3v-.2-.7z"/></g><g fill="#FFF"><path d="M304.1 51.4c0 .1 0 .2-.1.3-.1.1-.2.1-.3.1h-.7v-.3h.1v-1.2h-.1V50h.7c.1 0 .2 0 .3.1.1.1.1.2.1.3v1zm-.3 0v-1-.1h-.4v1.2h.3l.1-.1zM304.6 51.8h-.3v-1.9h.3v1.9zM305.9 51.4c0 .1 0 .2-.1.3-.1.1-.2.1-.3.1h-.2c-.1 0-.2 0-.3-.1-.1-.1-.1-.2-.1-.3l.3-.1v.2h.4v-.2c0-.1 0-.1-.1-.1l-.5-.2c-.2-.1-.2-.2-.2-.4v-.2c0-.1 0-.2.1-.3.1-.1.2-.1.3-.1h.2c.1 0 .2 0 .3.1.1.1.1.2.1.3l-.3.1v-.1-.1H305.2h-.1v.2c0 .1 0 .1.1.2l.5.2c.2.1.2.2.2.4v.1zM307.2 51.8h-.3v-.2l-.3-.6-.1.2v.6h-.3v-1.9h.3v.7l.4-.5V50h.3v.3l-.4.5.4.8v.2zM309.4 51.4c0 .1 0 .2-.1.3-.1.1-.2.1-.3.1h-.2c-.1 0-.2 0-.3-.1-.1-.1-.1-.2-.1-.3l.3-.1v.2h.4v-.2c0-.1 0-.1-.1-.1l-.5-.2c-.2-.1-.2-.2-.2-.4v-.2c0-.1 0-.2.1-.3.1-.1.2-.1.3-.1h.2c.1 0 .2 0 .3.1.1.1.1.2.1.3l-.3.1v-.1-.1H308.7h-.1v.2c0 .1 0 .1.1.2l.5.2c.2.1.2.2.2.4v.1zM310.6 50.2l-.4.7v.9h-.3v-.9l-.4-.7V50h.3v.2l.2.4.2-.4V50h.3v.2zM311.8 51.4c0 .1 0 .2-.1.3-.1.1-.2.1-.3.1h-.2c-.1 0-.2 0-.3-.1-.1-.1-.1-.2-.1-.3l.3-.1v.2h.4v-.2c0-.1 0-.1-.1-.1l-.5-.2c-.2-.1-.2-.2-.2-.4v-.2c0-.1 0-.2.1-.3.1-.1.2-.1.3-.1h.2c.1 0 .2 0 .3.1.1.1.1.2.1.3l-.3.1v-.1-.1H311.1h-.1v.2c0 .1 0 .1.1.2l.5.2c.2.1.2.2.2.4v.1zM313 50.3h-.4v1.5h-.3v-1.5h-.4V50h1.1v.3zM314.3 51.8h-1.1v-1.9h1.1v.3h-.7v.5h.5v.3h-.5v.5h.8v.3zM315.5 51.8h-.3V51l-.1.4h-.2l-.1-.4v.8h-.3v-1.9h.3l.2.8.2-.8h.3v1.9z"/></g><path fill="#FFF" d="M317.1 49.9h12.8v1.9h-12.8z"/><g fill="#1D1D1B"><path d="M317.8 51.5v-1.3h.3v.5h1v-.5h.3v1.3h-.3v-.6h-1v.6h-.3zM320.3 51.5l-.7-1.3h.3l.5.9c0 .1.1.1.1.2 0-.1.1-.1.1-.2l.5-.9h.3l-.8 1.3h-.3zM322.9 51.1h.3c-.1.1-.1.2-.3.3-.1.1-.3.1-.5.1s-.4 0-.5-.1c-.1-.1-.2-.1-.3-.2-.1-.1-.1-.2-.1-.3 0-.1 0-.2.1-.3.1-.1.2-.2.3-.2.1-.1.3-.1.5-.1s.4 0 .5.1l.3.3h-.2c0-.1-.1-.2-.2-.2s-.2-.1-.3-.1c-.1 0-.3 0-.4.1-.1 0-.2.1-.2.2s-.1.2-.1.2c0 .1 0 .2.1.3 0 .1.1.1.2.2.1 0 .2.1.3.1.1 0 .3 0 .4-.1 0-.2.1-.2.1-.3zM323.4 51.1V51h.7v.2h-.7zM324.3 50.9c0-.2.1-.4.3-.5.2-.1.4-.2.7-.2.2 0 .3 0 .5.1.1.1.3.1.3.2.1.1.1.2.1.3 0 .1 0 .2-.1.3-.1.1-.2.2-.3.2-.1.1-.3.1-.5.1s-.3 0-.5-.1c-.1-.1-.2-.1-.3-.2-.2 0-.2-.1-.2-.2zm.2 0c0 .2.1.3.2.4s.3.1.5.1.3 0 .5-.1c.1-.1.2-.2.2-.4 0-.1 0-.2-.1-.3l-.2-.2c-.1 0-.2-.1-.3-.1-.2 0-.3 0-.5.1-.2.2-.3.3-.3.5zM327.6 51.4v.1h-1.3v-.1c0-.1.1-.1.2-.2s.2-.1.3-.2c.2-.1.3-.2.4-.3.1-.1.1-.1.1-.2s0-.1-.1-.2c-.1 0-.2-.1-.3-.1-.1 0-.2 0-.3.1-.1 0-.1.1-.1.2h-.2c0-.1.1-.2.2-.3.1-.1.3-.1.4-.1.2 0 .3 0 .4.1s.2.1.2.2v.1l-.2.2c-.1.1-.2.1-.4.2-.1.1-.2.1-.3.2l-.1.1h1.1z"/></g><path d="M327.9 51.2s.2.1.5.1c.2 0 .4-.1.4-.2 0-.2-.2-.2-.5-.2h-.1l-.1-.1.5-.3c.1 0 .1-.1.1-.1H327.8v-.2h1.2v.1l-.6.4c.3 0 .6.1.6.4 0 .2-.3.4-.7.4-.4 0-.7-.2-.7-.2l.3-.1z"/></g><path fill="#666" d="M1.3 16.6h23.3c1.8 0 3.3 1.5 3.3 3.2V50c0 1.8-1.5 3.2-3.3 3.2H1.3M24.2 65.9H1c-.4 0-.6-.3-.6-.6 0-.4.3-.6.6-.6h23.3c.4 0 .6.3.6.6s-.3.6-.7.6z"/><path fill="#3C3C3B" d="M1.3 17.8h22c1.7 0 3.1.9 3.1 2.5v28.8c0 1.7-.8 3-2.5 3H1.3"/><path fill="#666" d="M24.3 70.6H1.1c-.4 0-.6-.3-.6-.6 0-.4.3-.6.6-.6h23.3c.4 0 .6.3.6.6s-.3.6-.7.6zM24.2 75.3H1c-.4 0-.6-.3-.6-.6-.1-.4.2-.7.6-.7h23.3c.4 0 .6.3.6.6 0 .4-.3.7-.7.7zM211.2 65.9h-57.1c-.4 0-.6-.3-.6-.6 0-.4.3-.6.6-.6h57.1c.4 0 .6.3.6.6.1.3-.2.6-.6.6zM211.2 70.6h-57.1c-.4 0-.6-.3-.6-.6 0-.4.3-.6.6-.6h57.1c.4 0 .6.3.6.6.1.3-.2.6-.6.6zM211.2 75.3h-57.1c-.4 0-.6-.3-.6-.6 0-.4.3-.6.6-.6h57.1c.4 0 .6.3.6.6.1.3-.2.6-.6.6z"/></svg>